<mxfile host="Electron" modified="2023-11-15T23:55:54.149Z" agent="Mozilla/5.0 (Windows NT 10.0; Win64; x64) AppleWebKit/537.36 (KHTML, like Gecko) draw.io/22.0.3 Chrome/114.0.5735.289 Electron/25.8.4 Safari/537.36" etag="VLyGxLkIxYaXQW3tiHlc" version="22.0.3" type="device">
  <diagram id="C5RBs43oDa-KdzZeNtuy" name="Page-1">
    <mxGraphModel dx="1863" dy="606" grid="1" gridSize="10" guides="1" tooltips="1" connect="1" arrows="1" fold="1" page="1" pageScale="1" pageWidth="827" pageHeight="1169" math="0" shadow="0">
      <root>
        <mxCell id="WIyWlLk6GJQsqaUBKTNV-0" />
        <mxCell id="WIyWlLk6GJQsqaUBKTNV-1" parent="WIyWlLk6GJQsqaUBKTNV-0" />
        <mxCell id="NxjZhltJKMqcv7huLbp3-2" style="edgeStyle=orthogonalEdgeStyle;rounded=0;orthogonalLoop=1;jettySize=auto;html=1;exitX=0.5;exitY=1;exitDx=0;exitDy=0;" edge="1" parent="WIyWlLk6GJQsqaUBKTNV-1" source="NxjZhltJKMqcv7huLbp3-0" target="NxjZhltJKMqcv7huLbp3-1">
          <mxGeometry relative="1" as="geometry" />
        </mxCell>
        <mxCell id="NxjZhltJKMqcv7huLbp3-0" value="start" style="ellipse;whiteSpace=wrap;html=1;" vertex="1" parent="WIyWlLk6GJQsqaUBKTNV-1">
          <mxGeometry x="370" y="20" width="120" height="80" as="geometry" />
        </mxCell>
        <mxCell id="NxjZhltJKMqcv7huLbp3-4" style="edgeStyle=orthogonalEdgeStyle;rounded=0;orthogonalLoop=1;jettySize=auto;html=1;exitX=0.5;exitY=1;exitDx=0;exitDy=0;entryX=0.5;entryY=0;entryDx=0;entryDy=0;" edge="1" parent="WIyWlLk6GJQsqaUBKTNV-1" source="NxjZhltJKMqcv7huLbp3-1" target="NxjZhltJKMqcv7huLbp3-3">
          <mxGeometry relative="1" as="geometry" />
        </mxCell>
        <mxCell id="NxjZhltJKMqcv7huLbp3-1" value="n" style="shape=parallelogram;perimeter=parallelogramPerimeter;whiteSpace=wrap;html=1;fixedSize=1;" vertex="1" parent="WIyWlLk6GJQsqaUBKTNV-1">
          <mxGeometry x="370" y="130" width="120" height="60" as="geometry" />
        </mxCell>
        <mxCell id="NxjZhltJKMqcv7huLbp3-6" style="edgeStyle=orthogonalEdgeStyle;rounded=0;orthogonalLoop=1;jettySize=auto;html=1;exitX=0.5;exitY=1;exitDx=0;exitDy=0;entryX=0.5;entryY=0;entryDx=0;entryDy=0;" edge="1" parent="WIyWlLk6GJQsqaUBKTNV-1" source="NxjZhltJKMqcv7huLbp3-3" target="NxjZhltJKMqcv7huLbp3-5">
          <mxGeometry relative="1" as="geometry" />
        </mxCell>
        <mxCell id="NxjZhltJKMqcv7huLbp3-3" value="arr[n]&lt;br&gt;i=0" style="rounded=0;whiteSpace=wrap;html=1;" vertex="1" parent="WIyWlLk6GJQsqaUBKTNV-1">
          <mxGeometry x="370" y="210" width="120" height="60" as="geometry" />
        </mxCell>
        <mxCell id="NxjZhltJKMqcv7huLbp3-8" style="edgeStyle=orthogonalEdgeStyle;rounded=0;orthogonalLoop=1;jettySize=auto;html=1;exitX=0.5;exitY=1;exitDx=0;exitDy=0;entryX=0.5;entryY=0;entryDx=0;entryDy=0;" edge="1" parent="WIyWlLk6GJQsqaUBKTNV-1" source="NxjZhltJKMqcv7huLbp3-5" target="NxjZhltJKMqcv7huLbp3-7">
          <mxGeometry relative="1" as="geometry" />
        </mxCell>
        <mxCell id="NxjZhltJKMqcv7huLbp3-14" style="edgeStyle=orthogonalEdgeStyle;rounded=0;orthogonalLoop=1;jettySize=auto;html=1;exitX=0;exitY=0.5;exitDx=0;exitDy=0;" edge="1" parent="WIyWlLk6GJQsqaUBKTNV-1" source="NxjZhltJKMqcv7huLbp3-5">
          <mxGeometry relative="1" as="geometry">
            <mxPoint x="250" y="340" as="targetPoint" />
          </mxGeometry>
        </mxCell>
        <mxCell id="NxjZhltJKMqcv7huLbp3-5" value="i&amp;lt;n?" style="rhombus;whiteSpace=wrap;html=1;" vertex="1" parent="WIyWlLk6GJQsqaUBKTNV-1">
          <mxGeometry x="390" y="300" width="80" height="80" as="geometry" />
        </mxCell>
        <mxCell id="NxjZhltJKMqcv7huLbp3-7" value="arr[a]=" style="shape=parallelogram;perimeter=parallelogramPerimeter;whiteSpace=wrap;html=1;fixedSize=1;" vertex="1" parent="WIyWlLk6GJQsqaUBKTNV-1">
          <mxGeometry x="370" y="400" width="120" height="60" as="geometry" />
        </mxCell>
        <mxCell id="NxjZhltJKMqcv7huLbp3-12" style="edgeStyle=orthogonalEdgeStyle;rounded=0;orthogonalLoop=1;jettySize=auto;html=1;exitX=0.5;exitY=1;exitDx=0;exitDy=0;entryX=0.5;entryY=0;entryDx=0;entryDy=0;" edge="1" parent="WIyWlLk6GJQsqaUBKTNV-1" source="NxjZhltJKMqcv7huLbp3-9" target="NxjZhltJKMqcv7huLbp3-11">
          <mxGeometry relative="1" as="geometry" />
        </mxCell>
        <mxCell id="NxjZhltJKMqcv7huLbp3-9" value="gia tri nhap" style="shape=parallelogram;perimeter=parallelogramPerimeter;whiteSpace=wrap;html=1;fixedSize=1;" vertex="1" parent="WIyWlLk6GJQsqaUBKTNV-1">
          <mxGeometry x="360" y="490" width="120" height="60" as="geometry" />
        </mxCell>
        <mxCell id="NxjZhltJKMqcv7huLbp3-10" style="edgeStyle=orthogonalEdgeStyle;rounded=0;orthogonalLoop=1;jettySize=auto;html=1;exitX=0.5;exitY=1;exitDx=0;exitDy=0;entryX=0.587;entryY=0.03;entryDx=0;entryDy=0;entryPerimeter=0;" edge="1" parent="WIyWlLk6GJQsqaUBKTNV-1" source="NxjZhltJKMqcv7huLbp3-7" target="NxjZhltJKMqcv7huLbp3-9">
          <mxGeometry relative="1" as="geometry" />
        </mxCell>
        <mxCell id="NxjZhltJKMqcv7huLbp3-13" style="edgeStyle=orthogonalEdgeStyle;rounded=0;orthogonalLoop=1;jettySize=auto;html=1;exitX=1;exitY=0.5;exitDx=0;exitDy=0;entryX=1;entryY=0.5;entryDx=0;entryDy=0;" edge="1" parent="WIyWlLk6GJQsqaUBKTNV-1" source="NxjZhltJKMqcv7huLbp3-11" target="NxjZhltJKMqcv7huLbp3-5">
          <mxGeometry relative="1" as="geometry">
            <mxPoint x="570" y="615" as="targetPoint" />
            <Array as="points">
              <mxPoint x="480" y="620" />
              <mxPoint x="570" y="620" />
              <mxPoint x="570" y="340" />
            </Array>
          </mxGeometry>
        </mxCell>
        <mxCell id="NxjZhltJKMqcv7huLbp3-11" value="i++" style="rounded=0;whiteSpace=wrap;html=1;" vertex="1" parent="WIyWlLk6GJQsqaUBKTNV-1">
          <mxGeometry x="360" y="585" width="120" height="60" as="geometry" />
        </mxCell>
        <mxCell id="NxjZhltJKMqcv7huLbp3-16" style="edgeStyle=orthogonalEdgeStyle;rounded=0;orthogonalLoop=1;jettySize=auto;html=1;exitX=0;exitY=0.5;exitDx=0;exitDy=0;" edge="1" parent="WIyWlLk6GJQsqaUBKTNV-1" source="NxjZhltJKMqcv7huLbp3-15">
          <mxGeometry relative="1" as="geometry">
            <mxPoint x="50" y="340" as="targetPoint" />
          </mxGeometry>
        </mxCell>
        <mxCell id="NxjZhltJKMqcv7huLbp3-15" value="indexUp,valueUp" style="shape=parallelogram;perimeter=parallelogramPerimeter;whiteSpace=wrap;html=1;fixedSize=1;" vertex="1" parent="WIyWlLk6GJQsqaUBKTNV-1">
          <mxGeometry x="140" y="310" width="120" height="60" as="geometry" />
        </mxCell>
        <mxCell id="NxjZhltJKMqcv7huLbp3-18" style="edgeStyle=orthogonalEdgeStyle;rounded=0;orthogonalLoop=1;jettySize=auto;html=1;exitX=0.5;exitY=1;exitDx=0;exitDy=0;entryX=0.5;entryY=0;entryDx=0;entryDy=0;" edge="1" parent="WIyWlLk6GJQsqaUBKTNV-1" source="NxjZhltJKMqcv7huLbp3-17" target="NxjZhltJKMqcv7huLbp3-19">
          <mxGeometry relative="1" as="geometry">
            <mxPoint x="10" y="430" as="targetPoint" />
          </mxGeometry>
        </mxCell>
        <mxCell id="NxjZhltJKMqcv7huLbp3-25" style="edgeStyle=orthogonalEdgeStyle;rounded=0;orthogonalLoop=1;jettySize=auto;html=1;exitX=0.5;exitY=0;exitDx=0;exitDy=0;" edge="1" parent="WIyWlLk6GJQsqaUBKTNV-1" source="NxjZhltJKMqcv7huLbp3-17">
          <mxGeometry relative="1" as="geometry">
            <mxPoint x="-220" y="160" as="targetPoint" />
          </mxGeometry>
        </mxCell>
        <mxCell id="NxjZhltJKMqcv7huLbp3-17" value="i&amp;lt;n?" style="rhombus;whiteSpace=wrap;html=1;" vertex="1" parent="WIyWlLk6GJQsqaUBKTNV-1">
          <mxGeometry x="-260" y="300" width="80" height="80" as="geometry" />
        </mxCell>
        <mxCell id="NxjZhltJKMqcv7huLbp3-19" value="arr[%d]=%d,i,arr[i]" style="shape=parallelogram;perimeter=parallelogramPerimeter;whiteSpace=wrap;html=1;fixedSize=1;" vertex="1" parent="WIyWlLk6GJQsqaUBKTNV-1">
          <mxGeometry x="-280" y="440" width="120" height="60" as="geometry" />
        </mxCell>
        <mxCell id="NxjZhltJKMqcv7huLbp3-21" value="" style="edgeStyle=orthogonalEdgeStyle;rounded=0;orthogonalLoop=1;jettySize=auto;html=1;" edge="1" parent="WIyWlLk6GJQsqaUBKTNV-1" source="NxjZhltJKMqcv7huLbp3-20" target="NxjZhltJKMqcv7huLbp3-17">
          <mxGeometry relative="1" as="geometry" />
        </mxCell>
        <mxCell id="NxjZhltJKMqcv7huLbp3-20" value="arr[indexUp]=valueUp" style="rounded=0;whiteSpace=wrap;html=1;" vertex="1" parent="WIyWlLk6GJQsqaUBKTNV-1">
          <mxGeometry x="-70" y="310" width="120" height="60" as="geometry" />
        </mxCell>
        <mxCell id="NxjZhltJKMqcv7huLbp3-24" style="edgeStyle=orthogonalEdgeStyle;rounded=0;orthogonalLoop=1;jettySize=auto;html=1;exitX=0;exitY=0.5;exitDx=0;exitDy=0;entryX=0;entryY=0.5;entryDx=0;entryDy=0;" edge="1" parent="WIyWlLk6GJQsqaUBKTNV-1" source="NxjZhltJKMqcv7huLbp3-22" target="NxjZhltJKMqcv7huLbp3-17">
          <mxGeometry relative="1" as="geometry">
            <mxPoint x="-350" y="570" as="targetPoint" />
            <Array as="points">
              <mxPoint x="-350" y="570" />
              <mxPoint x="-350" y="340" />
            </Array>
          </mxGeometry>
        </mxCell>
        <mxCell id="NxjZhltJKMqcv7huLbp3-22" value="i++" style="rounded=0;whiteSpace=wrap;html=1;" vertex="1" parent="WIyWlLk6GJQsqaUBKTNV-1">
          <mxGeometry x="-290" y="540" width="120" height="60" as="geometry" />
        </mxCell>
        <mxCell id="NxjZhltJKMqcv7huLbp3-23" style="edgeStyle=orthogonalEdgeStyle;rounded=0;orthogonalLoop=1;jettySize=auto;html=1;exitX=0.5;exitY=1;exitDx=0;exitDy=0;entryX=0.578;entryY=-0.017;entryDx=0;entryDy=0;entryPerimeter=0;" edge="1" parent="WIyWlLk6GJQsqaUBKTNV-1" source="NxjZhltJKMqcv7huLbp3-19" target="NxjZhltJKMqcv7huLbp3-22">
          <mxGeometry relative="1" as="geometry" />
        </mxCell>
        <mxCell id="NxjZhltJKMqcv7huLbp3-26" value="end" style="ellipse;whiteSpace=wrap;html=1;" vertex="1" parent="WIyWlLk6GJQsqaUBKTNV-1">
          <mxGeometry x="-270" y="80" width="120" height="80" as="geometry" />
        </mxCell>
      </root>
    </mxGraphModel>
  </diagram>
</mxfile>
